<?xml version="1.0" standalone="no"?>
<!DOCTYPE svg PUBLIC "-//W3C//DTD SVG 20010904//EN"
 "http://www.w3.org/TR/2001/REC-SVG-20010904/DTD/svg10.dtd">
<svg version="1.0" xmlns="http://www.w3.org/2000/svg"
 width="3301.000000pt" height="3301.000000pt" viewBox="0 0 3301.000000 3301.000000"
 preserveAspectRatio="xMidYMid meet">
<metadata>
Created by potrace 1.11, written by Peter Selinger 2001-2013
</metadata>
<g transform="translate(0.000000,3301.000000) scale(0.100000,-0.100000)"
fill="#000000" stroke="none">
<path d="M9877 24194 c-1 -1 -67 -5 -147 -8 -80 -4 -161 -8 -180 -11 -19 -2
-64 -7 -100 -9 -94 -8 -193 -18 -210 -21 -8 -1 -40 -6 -70 -10 -30 -3 -66 -8
-80 -10 -14 -3 -47 -7 -74 -10 -27 -4 -108 -17 -180 -31 -72 -14 -145 -27
-163 -30 -17 -3 -98 -21 -180 -40 -81 -19 -157 -37 -167 -39 -10 -3 -34 -9
-51 -15 -30 -10 -32 -13 -24 -38 8 -25 57 -216 64 -251 2 -9 15 -61 30 -116
14 -55 27 -107 29 -115 2 -8 43 -168 91 -355 47 -187 88 -351 91 -365 3 -14 8
-34 11 -45 9 -27 9 -29 33 -125 11 -47 22 -92 25 -100 13 -49 87 -338 90 -350
6 -26 42 -170 85 -335 22 -88 43 -173 46 -190 3 -16 10 -38 15 -47 5 -10 8
-18 5 -18 -3 0 0 -15 5 -32 6 -18 25 -91 43 -163 31 -123 34 -130 57 -129 28
1 75 11 86 17 5 3 26 8 48 11 22 4 85 15 140 26 103 20 129 25 205 35 25 3 56
8 70 10 14 2 57 7 95 11 39 3 81 8 95 9 183 22 701 22 832 0 13 -2 50 -6 83
-9 33 -3 71 -8 85 -10 14 -3 41 -7 60 -10 19 -3 67 -11 106 -19 48 -9 71 -10
71 -3 0 6 21 92 46 191 25 99 48 191 51 205 3 14 35 144 71 290 62 249 133
537 140 570 2 8 19 78 38 156 20 77 38 151 41 165 2 13 16 71 31 129 15 58 28
112 30 120 2 8 13 53 25 100 12 47 23 92 25 100 2 8 38 155 80 325 42 171 78
319 81 330 2 11 6 30 8 43 3 12 8 26 11 32 9 14 -46 27 -355 84 -47 8 -105 18
-130 21 -25 3 -56 8 -70 10 -25 4 -84 12 -150 20 -252 32 -504 47 -823 49
-120 1 -219 1 -220 0z"/>
<path d="M12266 23832 c-2 -4 -11 -32 -19 -62 -9 -30 -29 -100 -45 -155 -17
-55 -51 -172 -77 -260 -25 -88 -55 -189 -66 -225 -11 -36 -22 -72 -24 -80 -2
-8 -22 -78 -45 -155 -23 -77 -43 -144 -44 -150 -2 -5 -6 -17 -9 -25 -3 -8 -7
-24 -10 -35 -4 -18 -48 -169 -127 -435 -33 -112 -64 -217 -127 -430 -25 -85
-63 -216 -85 -290 -22 -74 -42 -142 -44 -150 -2 -8 -13 -46 -25 -85 -32 -109
-49 -169 -49 -180 0 -6 64 -31 143 -54 78 -24 185 -59 237 -78 52 -19 100 -36
105 -37 35 -9 168 -69 265 -120 149 -77 463 -291 562 -384 l27 -25 48 50 c26
28 104 111 173 184 69 74 159 170 200 213 41 44 104 112 140 150 77 82 72 77
225 240 66 71 135 145 154 165 18 20 61 65 95 101 33 36 122 130 196 210 74
79 163 174 196 210 117 124 156 165 262 279 59 63 135 144 169 180 35 36 63
70 63 76 0 10 -38 47 -190 184 -169 151 -172 154 -230 201 -30 25 -57 47 -60
51 -3 3 -68 53 -145 111 -505 380 -997 610 -1630 764 -77 19 -155 38 -172 43
-18 5 -35 6 -37 3z"/>
<path d="M7395 23696 c-121 -40 -236 -80 -255 -88 -19 -9 -78 -32 -130 -53
-241 -93 -582 -254 -825 -391 -199 -111 -340 -199 -599 -374 -26 -18 -194
-139 -216 -156 -232 -181 -587 -486 -653 -561 -18 -20 -17 -22 20 -61 21 -22
104 -109 185 -193 81 -85 180 -188 220 -230 157 -164 395 -414 438 -459 25
-27 116 -122 202 -212 182 -190 218 -228 433 -453 88 -92 185 -194 215 -225
30 -32 88 -92 128 -134 40 -42 78 -76 85 -76 7 0 32 19 57 43 38 36 72 64 180
150 78 63 339 241 380 260 8 4 29 16 45 27 17 11 39 24 50 30 11 6 56 31 100
56 183 103 496 249 700 325 44 17 89 34 100 39 11 5 63 23 117 41 54 18 95 37
93 43 -2 6 -47 151 -100 321 -53 171 -118 380 -145 465 -52 167 -197 631 -446
1430 -86 278 -157 506 -158 507 0 1 -100 -31 -221 -71z"/>
<path d="M16231 23118 c-30 -5 -74 -19 -97 -33 -23 -13 -690 -673 -1482 -1465
-1114 -1114 -1445 -1450 -1463 -1487 -32 -66 -32 -178 0 -243 16 -31 160 -182
469 -492 412 -413 443 -447 417 -450 -30 -3 -37 -17 -49 -95 -3 -21 -12 -63
-20 -93 -8 -30 -16 -68 -19 -85 -3 -16 -12 -59 -20 -95 -30 -126 -131 -578
-140 -630 -3 -14 -12 -54 -21 -90 -20 -83 -54 -238 -60 -270 -2 -14 -11 -52
-19 -85 -9 -33 -18 -73 -21 -90 -2 -16 -14 -73 -26 -125 -12 -52 -24 -106 -26
-120 -3 -14 -9 -38 -14 -55 -5 -16 -11 -43 -14 -60 -3 -16 -7 -39 -10 -50 -6
-25 -193 -871 -200 -905 -3 -14 -10 -45 -17 -70 -6 -25 -13 -56 -15 -70 -3
-14 -21 -95 -40 -180 -20 -85 -38 -166 -40 -180 -3 -14 -11 -52 -19 -85 -11
-46 -121 -538 -140 -626 -3 -13 -36 -165 -50 -229 -2 -8 -26 -118 -55 -245
-28 -126 -53 -240 -56 -251 -2 -12 -18 -81 -34 -154 -17 -73 -30 -140 -30
-149 0 -15 52 -16 630 -16 411 0 630 4 631 10 1 6 5 19 9 31 5 11 11 36 14 55
7 40 6 35 46 214 17 77 34 149 36 160 8 38 12 60 24 110 6 28 14 61 16 75 3
14 11 53 19 86 8 34 16 73 19 85 3 13 14 67 26 119 12 52 23 102 25 110 2 8 6
26 9 40 14 64 125 568 130 590 2 14 11 54 20 90 8 36 17 76 20 90 4 23 42 195
51 230 13 53 65 290 69 314 4 25 31 144 116 526 11 47 33 148 50 225 17 77 35
158 40 180 6 22 12 51 14 65 3 14 14 68 26 120 12 52 23 102 25 110 2 8 20 89
40 180 20 91 39 176 41 189 3 14 7 28 10 33 8 12 1651 10 1675 -2 10 -6 19
-21 19 -33 0 -22 -53 -275 -64 -307 -3 -8 -7 -31 -10 -51 -3 -20 -8 -42 -10
-50 -5 -14 -14 -56 -21 -94 -2 -11 -17 -78 -33 -150 -17 -71 -33 -143 -36
-160 -14 -84 -58 -269 -66 -286 -28 -51 -4 -49 -731 -49 l-677 0 -6 -27 c-4
-16 -8 -37 -11 -48 -2 -11 -16 -72 -30 -135 -34 -147 -35 -150 -41 -180 -3
-14 -29 -131 -59 -260 -91 -398 -94 -410 -81 -411 6 0 157 -1 336 -1 l325 0
28 -106 c15 -59 32 -120 37 -137 5 -16 23 -84 40 -150 18 -66 33 -127 35 -135
3 -8 16 -58 30 -110 14 -52 27 -102 29 -110 2 -8 18 -68 36 -133 17 -64 33
-125 35 -135 2 -9 40 -154 85 -322 45 -168 90 -339 101 -380 l20 -75 667 0
c581 1 667 3 666 15 -2 15 -8 39 -79 295 -20 72 -37 137 -39 145 -2 8 -59 215
-126 460 -143 521 -149 544 -184 675 -15 55 -36 130 -46 166 l-18 67 61 17
c34 9 68 22 75 27 6 6 12 8 12 5 0 -11 147 66 227 119 168 112 343 313 422
486 38 84 74 195 87 268 3 14 10 43 16 65 5 22 12 49 14 59 6 32 53 249 90
414 18 84 36 163 38 175 3 12 7 33 10 47 14 66 17 76 20 95 5 25 22 100 41
180 25 108 45 200 49 225 2 14 14 67 25 119 29 125 36 187 35 306 -1 146 -11
194 -67 316 -56 122 -180 233 -327 292 -62 25 -168 50 -255 61 -22 3 -510 5
-1085 6 l-1045 0 1231 1233 c813 813 1237 1245 1248 1269 38 85 36 170 -5 252
-28 57 -1338 1366 -1389 1389 -57 26 -111 34 -169 25z"/>
<path d="M4169 21523 c-35 -38 -96 -104 -134 -148 -39 -44 -76 -86 -84 -94 -7
-8 -48 -58 -90 -111 -42 -52 -78 -97 -82 -100 -20 -17 -210 -279 -303 -419
-182 -271 -307 -484 -444 -756 -75 -151 -145 -294 -147 -305 -1 -3 -9 -23 -19
-45 -52 -117 -124 -298 -173 -435 -54 -153 -143 -426 -143 -441 0 -5 33 -18
73 -29 39 -12 108 -32 152 -46 44 -13 175 -51 290 -85 116 -34 302 -88 415
-121 113 -33 219 -63 235 -68 17 -4 69 -19 117 -34 48 -15 95 -29 105 -31 17
-4 680 -198 1063 -311 102 -30 206 -61 231 -68 l46 -12 18 55 c81 263 272 683
416 916 10 17 27 46 38 66 87 159 373 547 508 689 18 19 33 37 33 41 0 5 -101
102 -330 319 -26 25 -121 116 -212 202 -90 86 -186 178 -214 205 -29 26 -125
118 -215 204 -90 87 -191 183 -224 214 -33 31 -101 96 -151 143 -196 188 -493
471 -573 547 -46 44 -93 90 -104 103 -11 12 -24 22 -27 22 -4 0 -36 -30 -71
-67z"/>
<path d="M9045 18950 c-4 -6 67 -80 449 -474 127 -131 266 -275 309 -320 209
-217 261 -266 281 -266 12 0 176 0 366 1 1094 3 1062 4 1076 -15 7 -10 11 -25
9 -34 -2 -10 -13 -61 -25 -116 -12 -54 -23 -106 -25 -115 -2 -9 -13 -59 -25
-111 -12 -52 -23 -104 -26 -115 -2 -11 -40 -184 -84 -385 -45 -201 -94 -426
-110 -500 -16 -74 -48 -216 -70 -315 -22 -99 -47 -214 -56 -255 -9 -41 -17
-82 -19 -90 -4 -14 -44 -197 -66 -295 -14 -65 -16 -77 -33 -146 -8 -37 -17
-78 -20 -90 -3 -13 -14 -67 -26 -119 -11 -52 -23 -108 -26 -125 -13 -74 -26
-105 -54 -129 l-30 -25 -715 1 c-393 1 -715 4 -715 7 0 3 11 65 25 136 14 72
27 141 30 155 3 14 7 36 10 50 3 14 8 39 11 55 3 17 12 64 20 105 8 41 16 87
18 101 3 15 21 111 41 215 21 104 39 198 41 209 2 11 8 43 14 70 5 28 12 64
15 80 3 17 7 41 10 55 3 14 9 50 15 80 6 30 12 64 14 75 2 11 20 106 40 210
20 105 41 210 46 235 8 38 42 221 56 300 3 14 7 32 9 40 3 8 7 33 10 55 4 22
8 48 11 57 3 10 7 30 10 45 2 16 11 62 19 103 8 41 17 89 20 107 3 18 11 61
19 97 13 62 12 65 -9 88 -123 128 -987 979 -991 976 -5 -5 -69 -300 -80 -368
-3 -19 -12 -62 -19 -95 -17 -73 -93 -438 -101 -480 -6 -36 -30 -146 -49 -230
-8 -33 -16 -73 -18 -90 -3 -16 -16 -84 -30 -150 -14 -66 -40 -187 -57 -270
-17 -82 -48 -233 -70 -335 -22 -102 -41 -196 -44 -210 -2 -14 -12 -59 -21
-100 -9 -41 -19 -88 -21 -105 -2 -16 -7 -37 -10 -47 -2 -9 -7 -27 -9 -40 -3
-13 -11 -54 -19 -93 -15 -66 -18 -84 -31 -152 -3 -16 -8 -41 -12 -58 -4 -16
-8 -34 -9 -40 -1 -5 -20 -100 -43 -210 -23 -110 -48 -229 -56 -265 -8 -36 -17
-76 -19 -90 -5 -29 -13 -67 -56 -270 -17 -80 -32 -154 -34 -165 -3 -11 -28
-130 -56 -265 -60 -282 -58 -274 -66 -320 -3 -19 -13 -62 -21 -94 -8 -32 -16
-71 -18 -85 -2 -14 -8 -46 -14 -71 -6 -25 -11 -51 -11 -58 0 -10 311 -12 1628
-9 l1627 3 90 25 c139 40 232 83 350 162 174 116 322 281 409 453 68 136 97
239 181 635 2 9 13 61 25 115 12 55 23 106 25 114 51 233 122 555 145 655 16
72 32 141 34 155 3 14 16 77 31 140 14 63 28 124 31 135 13 64 67 309 79 360
8 33 16 71 19 85 2 14 9 43 14 65 6 22 13 51 16 65 14 73 25 123 60 280 28
119 32 142 41 188 3 15 13 56 21 92 8 36 17 76 20 90 7 30 8 35 29 130 10 41
21 93 26 115 4 22 17 79 27 126 23 100 28 269 12 349 -28 138 -94 257 -204
365 -111 110 -231 169 -387 191 -60 8 -3219 12 -3224 4z"/>
<path d="M19326 18883 c-9 -38 -18 -79 -20 -93 -3 -14 -7 -34 -10 -45 -20 -87
-36 -154 -40 -175 -2 -14 -9 -45 -15 -70 -5 -25 -12 -56 -15 -70 -2 -14 -34
-158 -71 -320 -37 -162 -69 -305 -71 -317 -2 -12 -24 -111 -49 -220 -24 -109
-46 -209 -49 -223 -2 -14 -13 -63 -25 -110 -11 -47 -22 -97 -25 -110 -2 -14
-27 -126 -54 -250 -28 -124 -53 -236 -56 -250 -2 -14 -13 -63 -25 -110 -11
-47 -22 -97 -25 -110 -2 -14 -9 -45 -15 -70 -5 -25 -12 -56 -15 -70 -2 -14
-20 -95 -40 -180 -19 -85 -37 -166 -40 -180 -2 -14 -17 -77 -31 -140 -14 -63
-28 -126 -31 -139 -3 -13 -23 -103 -45 -200 -22 -97 -41 -185 -43 -196 -2 -11
-16 -74 -31 -140 -15 -66 -28 -127 -30 -136 -2 -9 -26 -119 -54 -245 -28 -126
-53 -238 -55 -249 -2 -11 -9 -38 -15 -60 -5 -22 -13 -56 -16 -75 -3 -19 -10
-51 -15 -70 -5 -19 -11 -46 -14 -60 -3 -14 -7 -34 -10 -45 -13 -57 -25 -113
-30 -135 -2 -14 -10 -47 -16 -75 -7 -27 -14 -61 -16 -75 l-4 -25 632 0 633 0
112 505 c62 278 115 514 117 525 2 11 9 40 15 65 5 25 13 59 16 75 11 57 16
77 46 208 17 73 33 141 35 152 10 52 18 90 19 95 2 8 29 124 30 130 3 13 26
117 29 135 2 11 9 38 14 60 6 22 13 51 16 65 2 14 13 66 25 115 11 50 22 101
25 115 3 14 39 178 81 365 42 187 78 349 80 360 3 11 7 31 10 45 3 14 7 34 9
45 2 11 11 50 20 88 9 37 18 81 21 99 3 17 8 34 10 38 2 4 7 22 10 41 3 19 21
102 40 184 19 83 36 161 39 175 2 14 11 54 20 90 8 36 17 79 20 95 3 17 10 45
15 63 5 17 8 32 6 32 -3 0 0 11 5 26 6 14 12 38 15 54 3 17 12 58 20 92 8 35
16 74 19 88 2 14 11 54 20 90 8 36 17 76 20 90 3 14 7 34 9 45 19 81 87 388
91 407 3 13 8 37 11 53 3 17 12 55 19 85 8 30 17 67 20 83 l6 27 -634 0 -634
0 -16 -67z"/>
<path d="M21295 18888 c4 -34 8 -65 10 -68 1 -3 6 -30 9 -60 4 -30 8 -66 10
-80 2 -14 7 -47 11 -73 4 -27 8 -56 10 -65 1 -10 6 -39 9 -67 9 -63 15 -105
21 -152 11 -74 24 -169 30 -208 3 -22 10 -69 15 -105 5 -36 12 -85 15 -110 4
-25 8 -56 10 -70 2 -14 7 -45 10 -70 3 -25 8 -56 10 -70 2 -14 7 -45 10 -70 3
-25 8 -56 10 -70 9 -61 17 -117 21 -141 2 -14 6 -41 8 -60 18 -140 43 -314 51
-359 2 -14 7 -50 10 -80 3 -30 8 -62 10 -70 2 -8 7 -40 10 -70 3 -30 8 -62 10
-70 2 -8 7 -36 10 -62 6 -59 20 -154 31 -223 1 -11 10 -72 19 -135 19 -144 24
-177 30 -215 3 -16 7 -46 10 -65 2 -19 11 -84 20 -145 8 -60 18 -128 21 -150
3 -22 7 -51 9 -65 2 -14 7 -45 10 -70 3 -25 8 -56 10 -70 2 -14 6 -45 10 -70
3 -25 8 -56 10 -70 4 -24 8 -50 20 -145 3 -22 7 -51 9 -65 2 -14 7 -47 11 -73
4 -27 8 -56 10 -65 1 -10 6 -42 9 -73 4 -31 8 -65 10 -75 2 -11 7 -41 10 -69
4 -27 8 -61 11 -75 2 -14 7 -43 10 -65 3 -22 7 -53 10 -70 3 -16 7 -46 9 -65
13 -100 27 -199 30 -216 2 -10 7 -41 10 -69 4 -27 9 -61 11 -75 2 -14 8 -59
14 -100 6 -41 13 -93 17 -115 6 -38 10 -64 13 -92 0 -8 10 -11 24 -9 12 3 25
5 29 5 3 1 27 42 53 92 25 51 63 124 84 163 40 74 119 226 216 411 32 61 78
148 103 195 24 47 67 128 95 180 27 52 71 136 97 185 26 50 73 140 105 200 32
61 77 146 101 191 24 45 42 83 40 85 -2 2 -7 33 -10 69 -3 36 -8 74 -10 85 -2
11 -7 52 -10 90 -4 39 -8 80 -10 90 -2 11 -7 56 -11 99 -4 43 -8 86 -10 95 -1
9 -6 48 -10 86 -3 39 -8 84 -10 100 -6 43 -13 111 -20 180 -3 33 -10 94 -15
135 -5 41 -12 100 -15 130 -3 30 -8 71 -10 90 -5 43 -12 106 -20 185 -3 33 -8
71 -10 85 -2 14 -6 54 -10 90 -4 36 -8 76 -10 90 -2 14 -6 54 -10 90 -4 36 -8
76 -10 90 -2 14 -6 54 -10 90 -6 67 -11 106 -19 175 -3 22 -8 65 -11 95 -3 30
-8 71 -10 90 -2 19 -7 64 -11 100 -3 36 -8 73 -9 82 -2 9 -7 49 -10 89 -4 40
-8 81 -10 92 -2 10 -7 49 -10 85 -3 37 -7 76 -9 88 -2 11 -7 52 -11 90 -3 39
-8 85 -10 104 -3 19 -7 55 -10 80 -2 25 -9 86 -15 135 -5 50 -10 98 -10 108 0
16 -37 17 -646 17 l-645 0 6 -62z"/>
<path d="M25115 18892 c-16 -31 -120 -223 -231 -427 -110 -203 -220 -406 -244
-450 -23 -44 -100 -186 -170 -315 -70 -129 -145 -267 -165 -305 -51 -95 -87
-160 -120 -220 -50 -92 -92 -169 -140 -260 -26 -49 -56 -103 -65 -120 -10 -16
-34 -61 -55 -100 -21 -38 -52 -97 -70 -130 -154 -283 -299 -550 -353 -650 -35
-66 -77 -142 -92 -170 -15 -27 -46 -86 -70 -130 -24 -44 -55 -102 -70 -130
-30 -55 -62 -115 -135 -250 -27 -49 -68 -125 -92 -167 -23 -43 -43 -79 -43
-81 0 -3 -25 -48 -55 -102 -30 -53 -55 -98 -55 -100 0 -2 -49 -93 -108 -202
-60 -109 -127 -232 -149 -273 -22 -41 -57 -106 -78 -145 -20 -38 -45 -83 -55
-100 -35 -60 -110 -205 -110 -212 0 -9 1085 -11 1093 -3 3 3 68 111 145 240
76 129 190 321 252 425 62 105 156 262 208 350 81 137 145 244 182 305 5 8 33
56 63 105 29 50 65 110 79 135 48 85 228 385 238 397 5 7 10 14 10 16 0 3 91
157 202 343 222 373 480 807 574 966 33 57 111 189 174 293 99 167 218 367
497 835 93 156 81 136 158 264 36 59 65 110 65 111 0 2 39 67 86 145 47 78 88
148 91 156 4 12 -91 14 -678 14 l-684 0 -30 -58z"/>
<path d="M27129 18943 c-2 -21 -11 -66 -29 -143 -10 -47 -21 -96 -24 -110 -3
-14 -16 -77 -31 -140 -14 -63 -32 -146 -40 -185 -9 -38 -22 -97 -30 -130 -19
-83 -53 -235 -59 -265 -2 -14 -20 -95 -40 -180 -19 -85 -37 -166 -39 -180 -3
-14 -12 -54 -20 -90 -18 -73 -65 -285 -71 -315 -2 -11 -18 -83 -36 -160 -17
-77 -33 -151 -36 -165 -3 -14 -11 -52 -19 -85 -20 -86 -53 -236 -59 -265 -5
-27 -173 -787 -207 -935 -11 -49 -29 -128 -39 -175 -11 -47 -28 -125 -39 -175
-11 -49 -32 -142 -46 -205 -57 -260 -209 -944 -235 -1060 -16 -69 -25 -127
-20 -130 4 -3 858 -5 1897 -5 l1888 0 17 70 c10 39 20 86 23 105 3 19 10 53
16 75 6 22 13 49 15 60 5 28 0 4 90 405 14 63 27 123 29 133 2 10 6 26 9 35 3
9 8 33 11 52 3 19 10 51 15 70 6 19 10 40 10 46 0 8 -339 11 -1237 12 -1408 0
-1296 0 -1289 10 2 4 27 111 55 237 66 306 65 299 66 305 1 3 11 48 23 100 45
195 144 646 147 669 2 14 13 63 24 110 11 47 36 160 56 251 20 91 40 183 45
205 11 43 95 423 136 615 14 63 27 122 29 130 9 39 75 339 75 344 0 3 568 7
1263 8 l1262 3 32 145 c18 80 35 154 37 165 2 11 12 52 21 90 9 39 19 81 21
95 3 14 32 142 65 285 32 143 59 263 59 267 0 10 -3790 10 -3791 1z"/>
<path d="M2387 18023 c-5 -8 -22 -89 -33 -149 -3 -16 -7 -36 -9 -44 -3 -8 -7
-33 -10 -55 -4 -22 -8 -48 -11 -57 -7 -23 -14 -65 -19 -103 -2 -16 -6 -39 -8
-50 -5 -23 -16 -102 -32 -220 -2 -16 -6 -50 -9 -75 -4 -25 -9 -72 -12 -105 -3
-33 -7 -76 -9 -95 -21 -212 -28 -886 -12 -1080 5 -52 10 -113 12 -135 10 -125
18 -201 30 -286 3 -20 7 -51 9 -70 2 -19 9 -63 15 -99 6 -36 13 -83 16 -105 4
-22 18 -98 32 -170 32 -169 32 -166 38 -192 3 -13 7 -33 10 -45 2 -13 16 -72
31 -131 22 -88 29 -107 43 -103 9 3 192 55 406 116 215 61 595 170 845 241
250 72 478 136 505 144 28 7 169 48 315 90 146 42 290 83 320 92 112 30 147
40 243 68 l98 28 -6 41 c-4 23 -13 66 -21 96 -14 57 -49 257 -59 345 -4 28 -8
61 -10 75 -30 210 -27 738 6 975 5 39 12 86 14 105 3 19 12 73 20 120 9 47 18
99 22 116 5 30 4 31 -58 47 -35 10 -73 19 -84 22 -11 2 -209 52 -440 110 -231
59 -427 108 -435 110 -8 2 -53 13 -100 25 -47 12 -92 23 -100 25 -8 2 -107 26
-220 55 -113 28 -212 53 -220 55 -8 2 -134 33 -280 70 -146 37 -272 68 -280
70 -8 2 -44 11 -80 20 -36 9 -72 18 -80 20 -8 2 -97 24 -197 49 -203 51 -190
49 -196 39z"/>
<path d="M28254 16923 c-3 -16 -10 -44 -15 -63 -4 -19 -10 -46 -13 -60 -2 -14
-19 -86 -36 -160 -18 -74 -34 -146 -37 -160 -2 -14 -9 -43 -14 -65 -5 -22 -12
-50 -14 -61 -3 -12 -19 -82 -35 -155 -17 -73 -33 -144 -35 -158 -3 -15 -11
-50 -20 -80 -8 -30 -12 -57 -10 -61 2 -4 449 -6 992 -6 l987 1 8 35 c4 19 10
46 13 60 9 43 13 64 25 115 6 28 13 57 15 65 6 27 47 212 50 229 2 9 10 45 19
81 8 36 17 76 20 90 2 14 22 103 44 197 21 95 37 175 34 178 -3 3 -448 5 -988
5 l-984 0 -6 -27z"/>
<path d="M5235 14889 c-44 -15 -199 -69 -345 -118 -146 -49 -479 -163 -740
-251 -261 -89 -513 -175 -560 -190 -107 -36 -780 -266 -800 -273 -8 -3 -40
-13 -70 -23 -30 -9 -56 -18 -58 -19 -4 -4 97 -309 132 -400 125 -323 202 -497
336 -760 91 -179 237 -437 301 -533 16 -24 29 -45 29 -46 0 -11 191 -285 301
-431 186 -248 361 -456 552 -653 78 -80 80 -82 100 -65 22 20 59 56 413 399
132 128 271 262 309 299 39 38 184 179 323 314 140 135 293 284 340 330 85 81
571 552 599 580 8 7 13 17 11 21 -2 4 -36 44 -77 88 -165 181 -405 521 -563
797 -155 270 -317 616 -404 864 -19 53 -34 97 -34 98 0 5 -12 1 -95 -28z"/>
<path d="M24409 13171 c-1 -10 -6 -33 -22 -101 -9 -36 -15 -66 -14 -67 3 -2
81 -5 138 -4 l56 1 16 78 c9 42 17 82 17 87 0 10 -189 16 -191 6z"/>
<path d="M16278 13139 c-123 -19 -218 -74 -289 -169 -36 -48 -50 -81 -65 -156
l-6 -29 97 0 97 0 22 51 c30 72 46 91 97 113 49 22 122 22 157 0 44 -28 53
-84 25 -164 -25 -70 -156 -198 -419 -407 l-211 -168 -20 -90 -20 -90 347 0
347 0 16 78 c9 42 17 82 17 87 0 7 -76 10 -210 10 -115 0 -210 2 -210 5 0 3
46 41 102 85 57 44 110 85 118 92 183 142 302 275 343 379 23 61 31 164 15
215 -15 51 -72 112 -123 134 -31 13 -58 17 -160 29 -11 1 -41 -1 -67 -5z"/>
<path d="M17129 13139 c-166 -23 -300 -130 -357 -285 -36 -101 -122 -500 -122
-569 0 -175 104 -267 300 -267 199 0 340 94 418 278 30 71 123 496 125 569 4
200 -134 304 -364 274z m117 -189 c29 -25 42 -64 39 -120 -4 -57 -6 -70 -30
-174 -8 -33 -16 -72 -19 -86 -2 -14 -10 -47 -16 -75 -6 -27 -14 -60 -16 -73
-30 -156 -106 -233 -224 -228 -101 4 -133 47 -118 159 15 113 100 470 120 506
46 84 91 110 184 106 35 -1 71 -8 80 -15z"/>
<path d="M17950 13102 c-25 -24 -61 -51 -80 -61 -42 -22 -136 -51 -143 -45 -5
6 -35 -118 -30 -125 1 -2 36 -3 77 -3 42 0 78 -2 80 -6 2 -4 -4 -43 -15 -87
-16 -70 -102 -461 -115 -523 -3 -13 -13 -60 -24 -105 -30 -125 -35 -117 74
-117 l94 0 15 63 c9 34 18 76 21 92 4 24 76 353 91 415 8 33 37 166 41 190 3
14 10 43 15 65 5 22 12 51 15 65 3 14 14 64 25 112 10 48 19 94 19 101 0 9
-17 13 -57 13 -55 -1 -61 -3 -103 -44z"/>
<path d="M18677 13138 c-153 -20 -262 -100 -315 -231 -44 -109 -31 -226 31
-280 11 -9 18 -19 16 -20 -2 -2 -25 -15 -50 -30 -57 -32 -95 -75 -125 -142
-59 -128 -51 -263 19 -335 108 -111 360 -112 524 -3 116 77 189 241 169 378
-7 41 -16 57 -51 91 l-42 41 42 34 c102 81 154 216 131 339 -23 117 -167 183
-349 158z m116 -208 c26 -29 29 -39 25 -81 -11 -113 -139 -189 -235 -138 -51
27 -55 123 -8 185 60 78 164 94 218 34z m-111 -431 c107 -44 61 -252 -65 -295
-52 -18 -142 -11 -175 13 -55 41 -51 140 7 221 49 67 153 94 233 61z"/>
<path d="M19623 13061 c-1 -36 -4 -283 -7 -549 l-7 -483 102 3 103 3 158 355
c87 195 158 361 158 368 0 7 4 11 8 8 5 -3 7 -47 6 -98 -1 -51 -5 -216 -8
-365 l-6 -273 103 0 103 0 109 248 c59 136 118 270 131 297 12 28 66 149 119
270 53 121 102 232 110 247 7 15 10 30 7 32 -4 2 -49 3 -100 2 l-93 -1 -81
-190 c-44 -104 -90 -212 -102 -240 -13 -27 -43 -98 -67 -157 -24 -59 -46 -108
-49 -108 -5 0 -5 76 0 505 1 88 1 167 1 176 -1 14 -16 16 -103 15 l-102 -1
-92 -215 c-51 -118 -102 -235 -113 -260 -26 -58 -87 -201 -94 -220 -4 -8 -4
145 -2 341 l4 356 -98 0 -98 1 0 -67z"/>
<path d="M22206 13122 c-2 -4 -11 -41 -20 -82 -9 -41 -18 -84 -21 -95 -2 -11
-18 -83 -35 -160 -17 -77 -33 -147 -35 -155 -2 -8 -6 -26 -9 -40 -3 -14 -12
-54 -20 -90 -8 -36 -18 -77 -21 -92 -3 -16 -7 -40 -10 -55 -3 -16 -8 -36 -11
-45 -3 -10 -7 -28 -10 -40 -2 -13 -15 -71 -27 -130 l-23 -108 96 0 96 0 28
128 c16 70 39 172 52 227 12 55 25 111 28 125 12 60 26 126 65 297 48 216 55
250 64 308 2 11 -180 18 -187 7z"/>
<path d="M22986 13112 c-3 -10 -19 -80 -36 -157 -17 -77 -33 -146 -35 -153 -3
-8 -19 -2 -52 22 -27 18 -59 37 -73 41 -62 20 -152 -3 -205 -52 -49 -44 -105
-163 -125 -263 -5 -25 -19 -88 -30 -140 -37 -173 -41 -208 -28 -273 28 -140
177 -163 330 -51 l47 35 -5 -28 c-3 -15 -7 -36 -10 -45 -5 -16 4 -18 85 -18
98 0 94 -3 106 70 3 19 12 60 20 90 8 30 17 71 20 90 3 19 10 51 15 70 6 19
35 150 65 290 31 140 67 303 80 361 14 58 25 110 25 115 0 5 -42 10 -95 11
-80 1 -95 -1 -99 -15z m-130 -407 c22 -14 28 -26 25 -47 -3 -25 -14 -78 -27
-135 -9 -38 -18 -77 -20 -88 -19 -99 -48 -213 -58 -224 -16 -20 -86 -51 -118
-51 -39 0 -63 40 -60 101 3 81 62 330 93 391 38 74 102 95 165 53z"/>
<path d="M25150 12977 c-45 -207 -34 -193 -103 -147 -63 43 -90 49 -157 38
-61 -11 -114 -49 -154 -111 -44 -66 -67 -137 -110 -333 -54 -251 -42 -354 45
-393 73 -33 189 -4 271 68 l36 31 -9 -42 c-6 -22 -12 -45 -15 -50 -3 -4 38 -8
90 -8 53 0 95 3 94 8 -1 4 6 41 15 82 10 41 19 85 22 98 3 12 7 30 9 40 3 9
12 51 21 92 9 41 18 82 20 90 19 84 25 110 30 140 3 19 11 53 17 75 6 22 12
49 14 60 9 49 82 380 89 401 2 7 -30 11 -95 11 l-98 1 -32 -151z m-101 -275
c29 -23 30 -45 6 -147 -8 -33 -28 -123 -45 -200 -17 -76 -36 -143 -43 -147
-37 -26 -89 -48 -111 -48 -14 0 -35 10 -47 23 -32 33 -24 109 38 357 28 112
59 167 103 183 27 9 71 0 99 -21z"/>
<path d="M26730 13077 c-7 -29 -16 -70 -21 -92 -4 -22 -10 -49 -13 -60 -30
-134 -188 -847 -191 -867 l-5 -28 105 0 c76 0 107 4 109 13 2 6 23 102 46 212
24 110 45 205 47 211 2 6 25 12 51 13 l47 1 19 -97 c53 -283 66 -347 70 -350
2 -2 53 -2 113 -1 l109 3 -23 115 c-12 63 -25 129 -28 145 -3 17 -10 46 -15
65 -5 19 -11 51 -14 70 -2 19 -7 47 -10 62 -5 23 -1 29 38 48 116 56 196 210
191 367 -3 99 -54 165 -155 203 -24 8 -104 14 -247 15 l-212 3 -11 -51z m328
-128 c97 -9 111 -155 23 -245 -40 -40 -84 -54 -166 -51 l-60 2 3 30 c1 17 9
57 17 90 15 64 24 104 32 147 6 34 28 37 151 27z"/>
<path d="M28345 13036 c-22 -107 -19 -94 -39 -176 -8 -36 -18 -80 -21 -99 -3
-19 -8 -37 -10 -41 -2 -4 -6 -20 -9 -36 -3 -16 -15 -72 -27 -124 -49 -224 -60
-276 -64 -293 -2 -10 -6 -26 -9 -35 -3 -9 -8 -30 -11 -47 -5 -30 -7 -40 -24
-107 -5 -20 -6 -39 -3 -42 3 -4 47 -6 97 -6 l92 0 13 63 c7 34 14 67 16 72 2
10 73 327 79 355 2 8 17 76 33 150 17 74 33 146 35 160 3 14 16 75 30 135 14
61 27 121 29 135 l3 25 -96 1 -95 1 -19 -91z"/>
<path d="M28786 13111 c-6 -18 -52 -221 -60 -261 -3 -14 -26 -117 -51 -230
-26 -113 -49 -216 -51 -230 -3 -14 -16 -72 -29 -130 -13 -58 -26 -117 -29
-132 -15 -70 -17 -82 -22 -90 -3 -4 40 -8 95 -8 l100 0 16 73 c8 39 17 81 19
93 2 11 11 49 20 85 20 81 44 191 51 227 10 53 15 78 29 137 9 33 17 71 20 85
2 14 9 43 14 65 6 22 13 54 16 70 3 17 17 80 31 142 14 61 25 114 25 116 0 2
-43 4 -95 4 -79 1 -95 -2 -99 -16z"/>
<path d="M13194 12937 c-58 -59 -130 -125 -193 -177 -30 -25 -63 -53 -73 -63
-36 -34 -289 -219 -380 -277 -184 -117 -389 -228 -578 -313 -80 -36 -281 -114
-313 -122 -32 -8 -31 -4 -12 -63 61 -195 119 -383 127 -412 6 -19 41 -136 80
-260 38 -124 71 -232 73 -240 2 -8 24 -82 50 -165 26 -82 73 -235 105 -340 32
-104 81 -266 110 -360 70 -227 128 -416 151 -492 10 -35 28 -91 38 -125 11
-35 33 -110 51 -168 17 -58 35 -108 39 -113 15 -16 478 161 766 293 107 49
373 184 433 219 29 17 55 31 57 31 1 0 43 24 92 52 48 29 96 57 105 63 418
247 879 603 1269 983 l148 144 -27 25 c-15 14 -78 73 -141 131 -163 153 -172
161 -237 221 -33 30 -114 106 -181 169 -68 63 -131 122 -141 131 -11 9 -72 66
-137 126 -64 61 -132 124 -149 140 -18 17 -86 80 -152 141 -65 62 -135 126
-154 144 -19 18 -87 81 -150 140 -63 59 -137 128 -165 153 -27 25 -73 67 -101
94 -28 26 -94 89 -148 138 -53 50 -122 114 -154 143 -31 28 -59 52 -62 52 -3
0 -24 -19 -46 -43z"/>
<path d="M21083 12869 c-111 -14 -199 -72 -256 -170 -23 -40 -57 -148 -72
-229 -3 -14 -13 -65 -24 -113 -44 -202 3 -310 146 -333 196 -32 347 37 418
191 29 63 95 340 100 420 11 178 -98 260 -312 234z m109 -199 c9 -11 15 -31
13 -43 -27 -140 -75 -342 -90 -375 -20 -43 -85 -74 -139 -65 -43 7 -78 45 -71
77 2 11 13 62 24 111 11 50 22 101 25 115 20 103 43 165 67 183 54 40 137 38
171 -3z"/>
<path d="M21957 12868 c-42 -7 -88 -28 -107 -48 -3 -3 -20 -18 -37 -34 l-33
-29 10 34 c20 68 20 68 -81 67 -58 0 -92 -5 -94 -12 -3 -6 -7 -22 -9 -36 -3
-14 -39 -177 -80 -363 -42 -185 -78 -351 -81 -369 -3 -17 -8 -35 -11 -40 -3
-4 40 -8 95 -8 56 0 101 3 102 8 1 14 19 103 25 127 5 22 76 342 80 365 13 70
27 101 55 124 17 14 36 27 42 27 33 4 91 -2 107 -11 22 -12 26 -7 34 45 4 22
10 54 15 70 10 32 22 96 18 94 -1 -1 -24 -5 -50 -11z"/>
<path d="M25710 12865 c-30 -6 -72 -19 -92 -27 -48 -21 -123 -91 -153 -142
-22 -38 -56 -147 -69 -221 -2 -16 -12 -64 -22 -105 -42 -188 -14 -280 102
-332 46 -20 155 -27 223 -14 57 11 140 58 178 99 39 43 88 141 78 156 -3 6
-46 9 -95 9 -86 -2 -90 -3 -99 -27 -23 -61 -86 -97 -147 -85 -58 11 -75 48
-60 131 4 24 7 44 5 45 -1 2 3 13 9 24 11 21 18 21 212 21 111 1 203 3 206 6
3 3 17 54 30 114 39 166 25 244 -54 306 -58 45 -158 62 -252 42z m106 -166
c26 -21 33 -53 23 -100 l-10 -45 -104 1 c-57 0 -107 3 -110 7 -9 9 14 80 35
106 37 46 128 63 166 31z"/>
<path d="M27753 12869 c-136 -17 -260 -113 -293 -229 l-7 -26 91 2 c112 2 103
0 111 24 3 11 22 32 41 47 44 33 103 36 135 8 18 -17 20 -27 15 -69 -3 -27
-10 -54 -15 -59 -5 -5 -53 -24 -107 -42 -137 -46 -221 -88 -281 -141 -123
-107 -150 -290 -51 -348 63 -38 209 -18 293 40 20 13 38 24 40 24 3 0 5 -16 5
-35 l0 -35 95 0 c88 0 95 1 95 20 0 11 29 153 65 315 36 163 65 313 65 334 0
128 -111 192 -297 170z m44 -471 c-10 -64 -36 -159 -47 -173 -20 -24 -112 -65
-146 -65 -42 0 -77 40 -68 79 9 38 48 86 91 113 40 24 152 77 166 78 5 0 6
-15 4 -32z"/>
<path d="M23236 12852 c-3 -2 -2 -124 0 -270 3 -147 6 -330 8 -407 l2 -140 90
-3 91 -3 104 250 c57 137 106 247 109 244 2 -2 5 -104 6 -226 1 -122 2 -232 3
-245 1 -22 3 -23 91 -20 l91 3 184 404 c102 223 185 408 185 412 0 4 -39 7
-86 6 -95 -2 -89 1 -123 -77 -142 -331 -182 -425 -185 -427 -2 -2 -3 103 -4
234 0 131 -1 246 -1 256 -1 16 -10 18 -86 16 -47 -1 -85 -6 -85 -10 0 -5 -13
-37 -29 -71 -39 -83 -111 -249 -118 -269 -2 -9 -20 -47 -38 -85 l-34 -69 0
220 c0 121 0 235 0 252 l-1 33 -85 -2 c-47 -1 -87 -3 -89 -6z"/>
<path d="M24332 12817 c-24 -102 -85 -376 -93 -412 -4 -22 -24 -112 -43 -200
-20 -87 -36 -163 -36 -167 0 -4 42 -8 94 -8 82 0 95 2 100 18 4 14 50 221 61
272 2 8 26 119 55 245 28 127 54 241 56 254 3 14 7 28 9 32 3 3 -40 7 -95 7
l-99 0 -9 -41z"/>
<path d="M29056 12851 c-2 -3 -3 -26 -1 -51 2 -25 6 -97 10 -160 3 -63 8 -128
10 -145 7 -53 19 -307 20 -391 0 -94 -11 -122 -67 -161 -29 -19 -55 -28 -98
-31 l-59 -4 -10 -47 c-5 -25 -13 -63 -17 -85 l-7 -39 90 5 c134 6 194 40 296
167 10 12 88 165 173 339 86 174 187 380 225 457 38 78 69 144 69 148 0 4 -44
6 -97 5 l-96 -3 -78 -175 c-42 -96 -84 -191 -93 -210 -9 -19 -27 -61 -41 -92
-14 -32 -26 -58 -27 -58 -3 0 -6 201 -7 441 l-1 97 -95 0 c-52 0 -97 -3 -99
-7z"/>
<path d="M6746 12618 c-26 -28 -93 -101 -149 -161 -56 -61 -115 -124 -131
-141 -31 -34 -226 -243 -318 -341 -31 -33 -65 -69 -75 -81 -15 -18 -194 -210
-268 -288 -36 -38 -261 -280 -313 -336 -28 -31 -70 -76 -94 -101 -24 -26 -88
-95 -143 -154 -163 -177 -259 -279 -324 -347 l-44 -47 52 -47 c264 -237 637
-513 971 -718 69 -42 132 -80 140 -86 101 -62 504 -270 660 -339 169 -76 488
-201 615 -243 311 -101 534 -163 547 -150 4 4 10 17 12 28 2 10 18 73 36 139
17 66 33 127 35 135 2 8 17 69 35 135 17 66 33 127 35 135 2 8 15 60 30 115
15 55 28 107 30 115 2 8 19 78 40 155 20 77 38 147 40 155 7 33 87 338 100
383 8 26 12 47 10 47 -3 0 0 12 6 27 5 15 34 122 64 237 50 197 107 417 176
681 16 61 31 119 34 130 2 11 9 38 14 60 6 22 11 45 11 51 0 6 -44 24 -97 39
-460 130 -978 366 -1338 608 -83 55 -243 173 -255 187 -9 10 -88 70 -92 70 -3
0 -26 -23 -52 -52z"/>
<path d="M11000 11769 c-59 -18 -299 -75 -360 -85 -14 -3 -47 -9 -75 -14 -27
-5 -68 -12 -90 -15 -23 -3 -50 -7 -62 -9 -12 -3 -53 -8 -90 -11 -37 -4 -76 -9
-87 -11 -10 -2 -62 -6 -116 -9 -54 -4 -111 -8 -126 -10 -39 -6 -404 -6 -479
-1 -139 10 -231 18 -245 21 -13 4 -58 9 -144 18 -16 2 -22 -7 -28 -38 -4 -22
-10 -51 -12 -65 -5 -21 -22 -105 -40 -195 -3 -11 -9 -40 -15 -65 -5 -25 -13
-61 -16 -80 -3 -19 -14 -75 -25 -125 -10 -49 -21 -103 -24 -119 -5 -26 -17
-85 -30 -151 -5 -22 -122 -594 -130 -635 -2 -14 -37 -180 -76 -370 -119 -578
-161 -784 -166 -815 -3 -16 -9 -46 -15 -65 -19 -73 -17 -76 69 -90 42 -7 84
-14 92 -15 8 -1 40 -5 70 -9 30 -4 66 -9 80 -11 35 -6 186 -24 245 -30 127
-12 168 -16 280 -23 159 -9 710 -9 855 1 160 11 212 15 267 21 26 3 90 11 141
16 93 10 144 17 192 26 14 2 45 7 70 10 25 3 52 7 60 9 8 3 32 7 54 11 21 3
48 8 60 10 11 2 35 7 51 9 17 3 73 15 125 26 52 11 106 23 120 25 89 17 510
133 523 144 5 4 -7 61 -27 126 -55 185 -175 588 -276 929 -50 171 -104 353
-120 405 -16 52 -65 219 -110 370 -44 151 -89 304 -100 340 -11 36 -53 178
-94 315 -61 208 -77 250 -92 252 -11 0 -48 -8 -84 -18z"/>
</g>
</svg>
