<?xml version="1.0" encoding="utf-8"?>
<!-- Generator: Adobe Illustrator 21.1.0, SVG Export Plug-In . SVG Version: 6.00 Build 0)  -->
<!DOCTYPE svg PUBLIC "-//W3C//DTD SVG 1.1//EN" "http://www.w3.org/Graphics/SVG/1.1/DTD/svg11.dtd">
<svg version="1.1" id="Layer_1" xmlns="http://www.w3.org/2000/svg" xmlns:xlink="http://www.w3.org/1999/xlink" x="0px" y="0px"
	 viewBox="0 0 144 144" enable-background="new 0 0 144 144" xml:space="preserve">
<g>
	<rect fill="#EFEEEE" width="144" height="144"/>
	<g>
		<path fill="#E21D38" d="M9.4,84h11.8c8.4,0,11.9,4.5,11.9,11.9v22.7c0,7.3-3.5,11.8-11.9,11.8H9.4V84z M17.5,91.2v32h3.1
			c2.9,0,4.4-1.5,4.4-5.2V96.5c0-3.8-1.5-5.2-4.4-5.2H17.5z"/>
		<path fill="#E21D38" d="M38.6,84h11.2c8.8,0,12.5,4.5,12.5,13.7c0,9.6-3.7,14.1-12.5,14.1h-3.1v18.6h-8.1V84z M46.6,91.2v13.4h2.5
			c3.4,0,5.1-1.3,5.1-6.8c0-5.2-1.7-6.5-5.1-6.5H46.6z"/>
		<path fill="#E21D38" d="M64.2,84H85v6.1l-12.6,33.1h13.2v7.2H63.5v-6.1l12.6-33.1H64.2V84z"/>
		<path fill="#E21D38" d="M86.6,84h23.6v7.2h-7.8v39.2h-8V91.2h-7.8V84z"/>
		<path fill="#E21D38" d="M129.5,84h8.1l-8.9,46.5h-9.9L109.9,84h8.4l5.6,33.7L129.5,84z"/>
	</g>
	<g>
		<g>
			<path fill="none" d="M53.3,49c-1.3,0-2.6,0.5-3.6,1.5c-1,1-1.5,2.3-1.5,3.6c0,1.3,0.5,2.6,1.5,3.6c1,1,2.3,1.5,3.6,1.5
				c1.3,0,2.6-0.5,3.6-1.5c1-1,1.5-2.3,1.5-3.6c0-1.3-0.5-2.6-1.5-3.6C56,49.5,54.6,49,53.3,49z"/>
			<path fill="none" d="M68.5,59.5c1.3,0,2.6-0.5,3.6-1.5c1-1,1.5-2.3,1.5-3.6c0-1.3-0.5-2.6-1.5-3.6c-1-1-2.3-1.5-3.6-1.5
				c-1.3,0-2.6,0.5-3.6,1.5c-1,1-1.5,2.3-1.5,3.6c0,1.3,0.5,2.6,1.5,3.6C65.8,59,67.1,59.5,68.5,59.5z"/>
			<path fill="none" d="M84.4,12.9c-0.4-0.4-1-0.6-1.6-0.6c-0.6,0-1.1,0.2-1.6,0.6L66.4,27.8l-4.3,4.3L83,53.1l1.8-1.8l17.5-17.5
				c0.9-0.9,0.9-2.2,0-3.1L84.4,12.9z"/>
			<path fill="#FFFFFF" d="M103.5,29.5L85.7,11.7c-0.8-0.8-1.8-1.2-2.8-1.2c-1.1,0-2.1,0.4-2.8,1.2L65.1,26.6L40.3,51.4
				c-1.6,1.6-1.6,4.1,0,5.6l17.8,17.8c0.8,0.8,1.7,1.2,2.8,1.2c1.1,0,2.1-0.4,2.8-1.2L86,52.6l17.5-17.5C105,33.5,105,31,103.5,29.5
				z"/>
			<path fill="#E21D38" d="M102.2,30.7L84.4,12.9c-0.9-0.9-2.2-0.9-3.1,0L62.1,32.2L83,53.1l19.2-19.2
				C103.1,33,103.1,31.6,102.2,30.7z M86.6,35.9c-1,1-2.3,1.5-3.6,1.5s-2.6-0.5-3.6-1.5c-1-1-1.5-2.3-1.5-3.6c0-1.3,0.5-2.6,1.5-3.6
				c1-1,2.3-1.5,3.6-1.5c1.3,0,2.6,0.5,3.6,1.5c1,1,1.5,2.3,1.5,3.6C88.1,33.5,87.6,34.9,86.6,35.9z"/>
			<path fill="#016592" d="M41.6,52.7c-0.9,0.9-0.9,2.2,0,3.1l17.8,17.8c0.4,0.4,1,0.6,1.6,0.6c0.6,0,1.1-0.2,1.6-0.6l19.2-19.2
				L60.8,33.4L41.6,52.7z M57,57.8c-1,1-2.3,1.5-3.6,1.5c-1.3,0-2.6-0.5-3.6-1.5c-1-1-1.5-2.3-1.5-3.6c0-1.3,0.5-2.6,1.5-3.6
				c1-1,2.3-1.5,3.6-1.5c1.3,0,2.6,0.5,3.6,1.5c1,1,1.5,2.3,1.5,3.6C58.5,55.5,58,56.8,57,57.8z M64.8,50.7c1-1,2.3-1.5,3.6-1.5
				c1.3,0,2.6,0.5,3.6,1.5c1,1,1.5,2.3,1.5,3.6c0,1.3-0.5,2.6-1.5,3.6c-1,1-2.3,1.5-3.6,1.5c-1.3,0-2.6-0.5-3.6-1.5
				c-1-1-1.5-2.3-1.5-3.6C63.3,53,63.8,51.7,64.8,50.7z"/>
		</g>
		<path fill="#046AA8" d="M68.6,71.5c0.7,0,1.3,0.6,1.3,1.3c0,0.8-0.6,1.3-1.3,1.3c-0.7,0-1.3-0.6-1.3-1.3
			C67.3,72.1,67.9,71.5,68.6,71.5z M68.6,71.8c-0.6,0-1.1,0.5-1.1,1.1c0,0.6,0.5,1.1,1.1,1.1c0.6,0,1.1-0.5,1.1-1.1
			C69.7,72.2,69.3,71.8,68.6,71.8z M68.4,73.6h-0.2v-1.5h0.6c0.4,0,0.5,0.1,0.5,0.4c0,0.3-0.2,0.4-0.4,0.4l0.4,0.7H69L68.6,73h-0.3
			V73.6z M68.4,72.8h0.3c0.3,0,0.4-0.1,0.4-0.2c0-0.1-0.1-0.2-0.3-0.2h-0.3V72.8z"/>
		<path fill="none" d="M53.3,49c-1.3,0-2.6,0.5-3.6,1.5c-1,1-1.5,2.3-1.5,3.6c0,1.3,0.5,2.6,1.5,3.6c1,1,2.3,1.5,3.6,1.5
			c1.3,0,2.6-0.5,3.6-1.5c1-1,1.5-2.3,1.5-3.6c0-1.3-0.5-2.6-1.5-3.6C56,49.5,54.6,49,53.3,49z"/>
		<path fill="none" d="M68.5,59.5c1.3,0,2.6-0.5,3.6-1.5c1-1,1.5-2.3,1.5-3.6c0-1.3-0.5-2.6-1.5-3.6c-1-1-2.3-1.5-3.6-1.5
			c-1.3,0-2.6,0.5-3.6,1.5c-1,1-1.5,2.3-1.5,3.6c0,1.3,0.5,2.6,1.5,3.6C65.8,59,67.1,59.5,68.5,59.5z"/>
		<path fill="none" d="M84.4,12.9c-0.4-0.4-1-0.6-1.6-0.6c-0.6,0-1.1,0.2-1.6,0.6L66.4,27.8l-4.3,4.3L83,53.1l1.8-1.8l17.5-17.5
			c0.9-0.9,0.9-2.2,0-3.1L84.4,12.9z"/>
	</g>
</g>
</svg>
