<svg id="Layer_1" data-name="Layer 1" xmlns="http://www.w3.org/2000/svg" viewBox="0 0 720 576"><defs><style>.cls-1{fill:#414042;}.cls-2{fill:#e03a3e;}.cls-3{fill:#fff;}.cls-4{fill:#bcbec0;}.cls-5{fill:none;}.cls-6{fill:#e21d38;}.cls-7{fill:#016592;}</style></defs><title>dLive_final version_CMYK</title><polygon class="cls-1" points="304.32 241.58 304.32 295.58 277.33 295.58 281.8 268.69 277.33 241.58 304.32 241.58"/><rect class="cls-1" x="298.08" y="241.58" width="37.09" height="54"/><rect class="cls-1" x="328.91" y="241.58" width="37.08" height="54"/><rect class="cls-1" x="359.74" y="241.58" width="37.09" height="54"/><rect class="cls-1" x="390.57" y="241.58" width="37.08" height="54"/><polygon class="cls-1" points="448.33 241.58 443.87 268.69 448.33 295.58 421.4 295.58 421.4 241.58 448.33 241.58"/><polygon class="cls-2" points="325.8 281.28 325.8 252.37 340.25 266.83 325.8 281.28"/><path class="cls-3" d="M70.46,5.22h11c7.86,0,11.16,4.26,11.16,11.16v21.3c0,6.84-3.3,11.1-11.16,11.1h-11ZM78,12V42H81c2.76,0,4.14-1.38,4.14-4.92V16.92C85.1,13.38,83.72,12,81,12Z" transform="translate(226.66 241.58)"/><polygon class="cls-4" points="345.81 246.8 353.37 246.8 353.37 283.58 365.37 283.58 365.37 290.36 345.81 290.36 345.81 246.8"/><rect class="cls-4" x="370.17" y="246.8" width="7.5" height="43.56"/><polygon class="cls-4" points="400.23 246.8 407.79 246.8 399.45 290.36 390.21 290.36 381.87 246.8 389.79 246.8 395.01 278.36 400.23 246.8"/><polygon class="cls-4" points="411.99 246.8 430.95 246.8 430.95 253.58 419.55 253.58 419.55 264.02 428.97 264.02 428.97 270.8 419.55 270.8 419.55 283.58 431.55 283.58 431.55 290.36 411.99 290.36 411.99 246.8"/><rect class="cls-5"/><path class="cls-5" d="M10.79,31.89A3.91,3.91,0,1,0,13.56,33,3.91,3.91,0,0,0,10.79,31.89Z" transform="translate(226.66 241.58)"/><path class="cls-5" d="M22.29,39.88a3.92,3.92,0,1,0-2.77-1.15A3.92,3.92,0,0,0,22.29,39.88Z" transform="translate(226.66 241.58)"/><path class="cls-5" d="M34.43,4.45a1.67,1.67,0,0,0-2.36,0L20.73,15.8l-3.31,3.31L33.31,35l1.35-1.35L48,20.34A1.67,1.67,0,0,0,48,18Z" transform="translate(226.66 241.58)"/><path class="cls-3" d="M48.92,17,35.39,3.5a3,3,0,0,0-4.28,0L19.77,14.84.88,33.73A3,3,0,0,0,.88,38L14.41,51.53a3,3,0,0,0,4.28,0L35.62,34.61l13.3-13.3A3,3,0,0,0,48.92,17Z" transform="translate(226.66 241.58)"/><path class="cls-6" d="M48,18,34.43,4.46a1.67,1.67,0,0,0-2.36,0L17.44,19.09,33.33,35,48,20.35A1.67,1.67,0,0,0,48,18ZM36.06,21.9a3.92,3.92,0,1,1,1.15-2.77A3.91,3.91,0,0,1,36.06,21.9Z" transform="translate(226.66 241.58)"/><path class="cls-7" d="M1.84,34.68a1.67,1.67,0,0,0,0,2.36L15.37,50.58a1.67,1.67,0,0,0,2.36,0L32.35,36,16.46,20.06Zm11.72,3.9a3.93,3.93,0,1,1,1.14-2.77A3.93,3.93,0,0,1,13.56,38.58Zm6-5.38A3.91,3.91,0,1,1,18.37,36,3.9,3.9,0,0,1,19.52,33.2Z" transform="translate(226.66 241.58)"/><path class="cls-3" d="M21,50a.57.57,0,1,1-.58.57A.57.57,0,0,1,21,50Zm0,.09a.48.48,0,1,0,.47.48A.47.47,0,0,0,21,50.06Zm-.12.81h-.1v-.66H21c.16,0,.23.06.23.19a.17.17,0,0,1-.17.18l.19.29h-.11L21,50.59h-.11Zm0-.37H21c.12,0,.16,0,.16-.11s0-.1-.15-.1h-.14Z" transform="translate(226.66 241.58)"/></svg>