<?xml version="1.0" standalone="no"?>
<!DOCTYPE svg PUBLIC "-//W3C//DTD SVG 20010904//EN"
 "http://www.w3.org/TR/2001/REC-SVG-20010904/DTD/svg10.dtd">
<svg version="1.0" xmlns="http://www.w3.org/2000/svg"
 width="700.000000pt" height="700.000000pt" viewBox="0 0 700.000000 700.000000"
 preserveAspectRatio="xMidYMid meet">
<metadata>
Created by potrace 1.11, written by Peter Selinger 2001-2013
</metadata>
<g transform="translate(0.000000,700.000000) scale(0.100000,-0.100000)"
fill="#000000" stroke="none">
<path d="M3501 5918 l-480 -483 507 -508 507 -507 477 477 c319 320 479 487
483 506 4 15 4 39 1 55 -5 18 -158 178 -464 485 l-457 457 -47 0 -47 0 -480
-482z m646 -269 c119 -57 168 -210 105 -330 -94 -180 -343 -180 -434 0 -108
212 113 433 329 330z"/>
<path d="M2479 4896 c-257 -259 -472 -482 -479 -495 -29 -56 -24 -63 453 -539
316 -316 461 -455 483 -461 69 -20 80 -10 571 481 255 255 463 467 463 473 0
14 -1003 1015 -1015 1014 -6 -1 -220 -214 -476 -473z m216 -305 c90 -41 145
-126 145 -226 0 -94 -51 -179 -134 -222 -39 -20 -132 -28 -182 -14 -122 33
-200 182 -164 313 14 51 95 135 145 153 56 20 142 18 190 -4z m701 4 c147 -44
217 -210 146 -346 -93 -179 -341 -179 -434 0 -70 134 -1 301 142 346 59 18 86
18 146 0z"/>
<path d="M3286 3498 c-20 -28 -20 -49 -1 -74 14 -18 15 -17 4 8 -10 22 -9 32
5 53 17 25 59 35 71 15 4 -6 -5 -10 -19 -10 -34 0 -34 -24 0 -55 26 -24 44
-25 44 -2 0 8 -3 7 -9 -2 -7 -11 -11 -10 -19 5 -11 20 8 61 21 47 4 -3 7 -2 7
3 0 38 -80 47 -104 12z m69 -28 c-3 -5 -10 -10 -16 -10 -5 0 -9 5 -9 10 0 6 7
10 16 10 8 0 12 -4 9 -10z"/>
<path d="M460 1790 l0 -1132 358 4 c300 4 367 7 417 22 193 55 305 167 352
352 16 63 18 131 18 754 0 625 -2 691 -18 750 -52 192 -167 307 -359 356 -50
13 -133 18 -415 21 l-353 5 0 -1132z m625 759 c49 -14 97 -63 113 -116 16 -55
17 -1229 1 -1288 -14 -51 -73 -110 -124 -124 -22 -6 -82 -11 -132 -11 l-93 0
0 775 0 775 98 0 c53 0 115 -5 137 -11z"/>
<path d="M1880 1791 l0 -1131 195 0 195 0 0 449 0 448 147 8 c274 13 404 69
502 216 85 128 124 349 102 589 -23 251 -108 402 -274 483 -110 54 -153 59
-524 64 l-343 5 0 -1131z m603 758 c52 -14 102 -61 124 -117 14 -38 18 -76 18
-197 0 -136 -2 -155 -23 -202 -16 -34 -37 -61 -65 -80 -37 -26 -48 -28 -154
-32 l-113 -3 0 321 0 321 88 0 c48 0 104 -5 125 -11z"/>
<path d="M3120 2745 l0 -175 285 0 c236 0 285 -2 285 -14 0 -7 -135 -368 -300
-801 l-300 -787 0 -154 0 -154 535 0 535 0 0 175 0 175 -319 2 -320 3 305 799
304 800 0 153 0 153 -505 0 -505 0 0 -175z"/>
<path d="M4210 2745 l0 -175 190 0 190 0 0 -955 0 -955 195 0 195 0 0 955 0
955 190 0 189 0 3 114 3 114 204 -1069 205 -1069 243 0 c134 0 243 3 243 7 0
8 419 2201 427 2231 l5 22 -198 -2 -199 -3 -135 -809 c-98 -591 -137 -801
-142 -780 -5 16 -64 369 -133 784 -69 415 -128 767 -131 783 l-6 27 -769 0
-769 0 0 -175z"/>
</g>
</svg>
