<?xml version="1.0" standalone="no"?>
<!DOCTYPE svg PUBLIC "-//W3C//DTD SVG 20010904//EN"
 "http://www.w3.org/TR/2001/REC-SVG-20010904/DTD/svg10.dtd">
<svg version="1.0" xmlns="http://www.w3.org/2000/svg"
 width="700.000000pt" height="700.000000pt" viewBox="0 0 700.000000 700.000000"
 preserveAspectRatio="xMidYMid meet">
<metadata>
Created by potrace 1.11, written by Peter Selinger 2001-2013
</metadata>
<g transform="translate(0.000000,700.000000) scale(0.100000,-0.100000)"
fill="#000000" stroke="none">
<path d="M3503 5718 l-423 -423 447 -448 448 -447 423 423 c384 385 422 426
422 456 0 18 -5 42 -11 54 -16 31 -758 775 -791 793 -15 8 -42 14 -60 14 -30
0 -71 -38 -455 -422z m585 -241 c79 -51 117 -154 92 -247 -22 -82 -126 -160
-212 -160 -75 0 -164 61 -199 135 -49 107 8 247 121 294 14 6 55 10 91 8 52
-2 75 -8 107 -30z"/>
<path d="M2603 4818 c-271 -272 -424 -432 -428 -449 -4 -16 -1 -38 8 -55 26
-49 788 -802 820 -809 15 -4 37 -5 50 -1 12 3 211 195 442 426 l420 420 -445
445 -445 445 -422 -422z m202 -270 c136 -72 155 -258 35 -360 -188 -161 -454
74 -321 284 61 95 186 128 286 76z m600 11 c90 -23 164 -117 165 -210 0 -65
-43 -146 -98 -184 -39 -27 -51 -30 -121 -30 -68 0 -83 3 -119 28 -124 82 -137
249 -26 346 63 55 121 70 199 50z"/>
<path d="M350 3048 c0 -2 33 -228 74 -504 l73 -500 -68 -465 c-37 -255 -70
-481 -73 -501 l-6 -38 3150 0 3150 0 -6 37 c-3 21 -36 247 -73 502 l-68 465
73 500 c41 276 74 502 74 504 0 1 -1417 2 -3150 2 -1732 0 -3150 -1 -3150 -2z
m1225 -208 c167 -20 269 -93 316 -227 23 -67 23 -75 27 -507 5 -579 -4 -639
-103 -745 -87 -93 -182 -114 -505 -109 l-205 3 -3 785 c-1 432 0 791 3 798 6
15 337 17 470 2z m1595 -670 l0 -670 220 0 220 0 0 -125 0 -125 -355 0 -355 0
0 795 0 795 135 0 135 0 0 -670z m890 -125 l0 -795 -135 0 -135 0 0 795 0 795
135 0 135 0 0 -795z m458 738 c6 -32 47 -285 93 -563 45 -278 85 -508 89 -512
3 -4 48 249 100 562 l94 570 133 0 c113 0 133 -2 133 -15 0 -17 -287 -1528
-296 -1557 -5 -16 -22 -18 -169 -18 -147 0 -164 2 -169 18 -3 9 -71 361 -151
782 -80 421 -148 771 -150 778 -3 9 29 12 139 12 l144 0 10 -57z m1502 -63 l0
-120 -210 0 -210 0 0 -195 0 -195 170 0 170 0 0 -120 0 -120 -170 0 -170 0 0
-235 0 -235 220 0 220 0 0 -125 0 -125 -355 0 -355 0 0 795 0 795 345 0 345 0
0 -120z"/>
<path d="M1380 2051 l0 -551 75 0 c92 0 138 17 162 62 17 30 18 67 18 488 0
419 -1 458 -18 483 -30 47 -62 60 -153 65 l-84 5 0 -552z"/>
</g>
</svg>
